<?xml version="1.0" encoding="UTF-8"?>
<svg xmlns="http://www.w3.org/2000/svg" version="1.1" viewBox="0 0 392.3 50.6">
  <defs>
    <style>
      .cls-1 {
        fill: #fff;
      }
    </style>
  </defs>
  <!-- Generator: Adobe Illustrator 28.7.7, SVG Export Plug-In . SVG Version: 1.2.0 Build 194)  -->
  <g>
    <g id="Capa_1">
      <g>
        <path class="cls-1" d="M3.7,43.9V6.6h33.1v8.8H14.9v5.3h20.8v8.5H14.9v5.9h21.9v8.8H3.7Z"/>
        <path class="cls-1" d="M60.5,17.8c0,1,.7,1.6,2,1.7s2.7.3,4.1.5c1.4.2,2.9.3,4.6.5,1.7.2,3.3.4,4.7.6,1.5.2,3,.5,4.5.8,1.5.3,2.8.9,3.9,1.8,1.1.8,1.9,2,2.4,3.4.5,1.4.8,3.1.8,5,0,3.5-.7,6.1-2.2,8-1.5,1.8-3.5,3.1-6.1,3.7-2.6.6-5.9.9-9.8.9s-7.4-.3-10.1-.9c-2.7-.6-5.1-1.8-7-3.5-1.9-1.8-2.9-4.8-2.9-9.2h10c0,1.5.8,2.7,2.5,3.5,1.7.9,4,1.3,7.2,1.3s5.5-.4,6.6-1.1c1.1-.7,1.6-1.6,1.6-2.5s-.6-1.3-1.7-1.6c-1.1-.3-2.5-.6-4.2-.9-1.7-.3-3.4-.6-5-.7-1.7-.2-3.3-.4-4.8-.5-1.5-.2-3-.5-4.6-.9-1.5-.4-2.9-1-4-1.8-1.1-.7-2-1.9-2.7-3.3-.7-1.5-1-3.1-1-4.9,0-3,.7-5.4,2-7.1,1.3-1.7,3.4-3,6.3-3.6s6.5-1,10.7-1,7.7.3,10.2,1c2.5.7,4.6,2,6.3,3.8,1.7,1.8,2.6,4.6,2.6,8.1h-9.8c0-1.1-.8-2.1-2.4-2.8-1.6-.7-3.8-1.1-6.6-1.1s-5.6.2-6.6.7-1.5,1.2-1.5,2.1Z"/>
        <path class="cls-1" d="M100.1,43.9V6.6h33.1v8.8h-21.9v5.3h20.8v8.5h-20.8v5.9h21.9v8.8h-33.1Z"/>
        <path class="cls-1" d="M145.8,43.9V6.6h21.1c4.5,0,8,.7,10.5,2,2.5,1.3,3.8,3.7,3.8,7s-.7,5.3-2.2,6.7c-1.4,1.4-3.4,2.1-5.8,2.1v.4c3.9.1,6.6.8,8,2,1.4,1.2,2.1,3.1,2.1,5.7,0,3.7-1.3,6.5-3.8,8.4-2.5,2-6.1,3-10.9,3h-23ZM157,21.1h9.4c1.2,0,2.1-.3,2.6-.8.5-.5.7-1.2.7-2s-.2-1.6-.7-2.1c-.5-.5-1.3-.8-2.3-.8h-9.7v5.7ZM157,35.1h11.5c1.2,0,2-.3,2.6-.9.6-.6.8-1.3.8-2.2s-.3-1.6-.8-2.2c-.5-.6-1.4-.9-2.6-.9h-11.6v6.2Z"/>
        <path class="cls-1" d="M196,43.9V6.6h20.8c4.1,0,7.1.2,9,.6,1.9.4,3.5,1.4,4.9,2.9,1.4,1.5,2,3.5,2.1,5.8v.2c0,3.8-1,6.3-3.1,7.7-1.1.8-2.9,1.3-5.2,1.7v.3c.4,0,.7,0,1.1,0s1,0,1.5.1c2.2.3,3.7,1.1,4.6,2.3.9,1.2,1.4,2.8,1.4,4.8v10.9h-11.2v-9.4c0-1-.1-1.8-.3-2.2-.2-.5-.6-.7-1.1-.8-.5,0-1.2-.1-2-.1h-11.1v12.5h-11.2ZM207.2,22.6h9.5c1.7,0,2.9-.3,3.6-1,.7-.7,1-1.5,1-2.4s-.4-2.1-1.2-2.8c-.8-.7-1.8-1-3.2-1h-9.8v7.2Z"/>
        <path class="cls-1" d="M280.8,43.9l-2.6-6.4h-18.6l-2.6,6.4h-12.1l15.5-37.3h17.2l15.4,37.3h-12.1ZM263.4,28.5h11.2l-5.2-12.7h-.9l-5.2,12.7Z"/>
        <path class="cls-1" d="M300.9,35.2l24.4-9.9-24.4-9.9V3.3l37.3,15.4v13.2l-37.3,15.4v-12.1Z"/>
        <path class="cls-1" d="M368.1,44.9c-5,0-9-.7-12-2.2-3-1.5-5.2-3.7-6.7-6.8-1.5-3-2.2-6.6-2.2-10.6s.7-7.6,2.1-10.6c1.4-3,3.6-5.3,6.7-6.8,3.1-1.5,7.1-2.3,12.1-2.3s9.1.8,12.1,2.4c3,1.6,5.2,3.8,6.7,6.8,1.4,3,2.2,6.5,2.2,10.6s-.7,7.6-2.2,10.6c-1.5,3-3.7,5.3-6.7,6.8-3,1.5-7,2.3-12.1,2.3ZM368.1,35.9c2.7,0,4.8-.4,6-1.2,1.3-.8,2.2-2,2.7-3.6.5-1.7.8-3.6.8-5.8s-.2-4.1-.7-5.8c-.5-1.6-1.4-2.8-2.7-3.7-1.3-.8-3.3-1.3-6.1-1.3s-4.7.4-6.1,1.2c-1.4.8-2.2,2-2.7,3.7s-.7,3.6-.7,5.8.3,4.1.8,5.8c.5,1.7,1.4,2.9,2.7,3.6,1.3.7,3.2,1.1,5.9,1.1Z"/>
      </g>
    </g>
  </g>
</svg>